<?xml version="1.0" standalone="no"?>
<!DOCTYPE svg PUBLIC "-//W3C//DTD SVG 20010904//EN"
 "http://www.w3.org/TR/2001/REC-SVG-20010904/DTD/svg10.dtd">
<svg version="1.0" xmlns="http://www.w3.org/2000/svg"
 width="512.000000pt" height="512.000000pt" viewBox="0 0 512.000000 512.000000"
 preserveAspectRatio="xMidYMid meet">

<g transform="translate(0.000000,512.000000) scale(0.100000,-0.100000)"
fill="#000000" stroke="none">
<path d="M1430 5105 c-80 -20 -127 -42 -195 -90 -77 -56 -961 -942 -974 -976
-15 -41 6 -70 166 -231 l147 -147 -47 -41 c-54 -48 -110 -151 -128 -237 -12
-59 -8 -335 6 -379 5 -17 -12 -37 -107 -119 -62 -54 -123 -109 -136 -122 l-22
-24 0 -513 c0 -504 0 -514 21 -540 l20 -26 353 0 353 0 21 23 22 23 0 522 0
521 -162 142 c-90 78 -175 149 -190 158 -22 13 -28 26 -34 69 -12 98 0 242 25
299 23 51 89 123 113 123 6 0 64 -52 129 -115 153 -150 140 -149 325 -11 l139
105 5 -257 c3 -141 9 -264 13 -273 11 -23 55 -41 81 -33 58 18 56 5 56 395 l0
358 -26 20 c-15 12 -36 21 -48 21 -12 0 -100 -58 -198 -130 -97 -71 -180 -130
-185 -130 -4 0 -126 118 -271 263 l-262 262 443 442 c468 468 484 482 598 503
28 6 86 10 128 10 l77 0 18 -89 c51 -254 214 -463 451 -578 219 -106 472 -108
693 -7 254 116 428 349 477 637 l6 37 79 0 c43 0 103 -5 132 -11 115 -24 137
-43 601 -507 l437 -437 -267 -267 -268 -266 -180 134 c-99 74 -188 134 -197
134 -33 0 -67 -23 -78 -53 -6 -19 -10 -211 -10 -543 l0 -514 -585 0 c-415 0
-591 -3 -609 -11 -14 -7 -30 -25 -36 -42 -6 -18 -10 -147 -10 -333 l0 -304
-455 0 -455 0 0 403 0 404 -23 21 c-31 29 -72 28 -102 -3 l-25 -24 0 -449 c0
-439 0 -450 21 -476 l20 -26 510 0 509 0 0 -866 c0 -639 3 -871 12 -887 25
-47 14 -46 571 -47 l528 0 24 25 c14 13 25 30 25 37 0 22 160 1211 163 1214 2
2 40 -274 85 -614 80 -601 83 -618 108 -639 l25 -23 523 0 c514 0 524 0 550
21 l26 20 0 574 0 574 -27 21 c-33 26 -79 21 -106 -11 -16 -20 -17 -60 -17
-535 l0 -514 -429 0 -429 0 -6 38 c-11 62 -226 1686 -226 1700 0 22 -48 62
-74 62 -14 0 -36 -10 -50 -22 -25 -23 -28 -40 -141 -888 -63 -475 -115 -870
-115 -877 0 -10 -87 -13 -430 -13 l-430 0 0 985 0 985 1165 0 1165 0 0 -345 0
-346 25 -24 c30 -30 64 -32 99 -4 l26 20 0 589 0 589 -26 20 c-26 21 -35 21
-620 21 l-594 0 0 440 0 440 142 -105 c107 -79 150 -105 173 -105 26 0 72 42
368 338 314 314 337 340 337 372 0 33 -29 64 -482 516 -435 432 -490 484 -554
517 -135 69 -86 67 -1219 66 -820 -1 -1031 -3 -1075 -14z m1740 -163 c0 -41
-28 -128 -63 -197 -83 -165 -222 -283 -402 -342 -112 -36 -267 -38 -375 -4
-163 50 -289 142 -378 276 -46 68 -92 181 -106 263 l-5 32 664 0 665 0 0 -28z
m-2457 -2206 l67 -58 0 -434 0 -434 -245 0 -245 0 0 433 0 432 77 67 c43 36
79 65 80 64 1 -1 6 -30 12 -65 13 -78 31 -101 81 -101 66 0 83 39 66 145 l-8
50 24 -21 c12 -11 53 -46 91 -78z m2175 -358 l3 -108 -196 0 -195 0 0 110 0
110 193 -2 192 -3 3 -107z m1402 2 l0 -110 -625 0 -625 0 0 110 0 110 625 0
625 0 0 -110z m540 0 l0 -110 -195 0 -195 0 0 110 0 110 195 0 195 0 0 -110z"/>
<path d="M2327 4878 c-40 -31 -36 -115 8 -132 9 -3 88 -6 174 -6 145 0 161 2
185 21 34 27 36 79 4 109 -20 18 -35 20 -188 20 -117 0 -171 -4 -183 -12z"/>
</g>
</svg>
