        <svg className="stroke-cyan-500" version="1.0" xmlns="http://www.w3.org/2000/svg" viewBox="0 0 512 512"><path d="M143 1.5c-8 2-12.7 4.2-19.5 9-7.7 5.6-96.1 94.2-97.4 97.6-1.5 4.1.6 7 16.6 23.1l14.7 14.7-4.7 4.1c-5.4 4.8-11 15.1-12.8 23.7-1.2 5.9-.8 33.5.6 37.9.5 1.7-1.2 3.7-10.7 11.9-6.2 5.4-12.3 10.9-13.6 12.2l-2.2 2.4v51.3c0 50.4 0 51.4 2.1 54l2 2.6h70.6l2.1-2.3 2.2-2.3V237.1l-16.2-14.2c-9-7.8-17.5-14.9-19-15.8-2.2-1.3-2.8-2.6-3.4-6.9-1.2-9.8 0-24.2 2.5-29.9 2.3-5.1 8.9-12.3 11.3-12.3.6 0 6.4 5.2 12.9 11.5 15.3 15 14 14.9 32.5 1.1l13.9-10.5.5 25.7c.3 14.1.9 26.4 1.3 27.3 1.1 2.3 5.5 4.1 8.1 3.3 5.8-1.8 5.6-.5 5.6-39.5v-35.8l-2.6-2c-1.5-1.2-3.6-2.1-4.8-2.1-1.2 0-10 5.8-19.8 13-9.7 7.1-18 13-18.5 13-.4 0-12.6-11.8-27.1-26.3L44 110.5l44.3-44.2c46.8-46.8 48.4-48.2 59.8-50.3 2.8-.6 8.6-1 12.8-1h7.7l1.8 8.9c5.1 25.4 21.4 46.3 45.1 57.8 21.9 10.6 47.2 10.8 69.3.7 25.4-11.6 42.8-34.9 47.7-63.7l.6-3.7h7.9c4.3 0 10.3.5 13.2 1.1 11.5 2.4 13.7 4.3 60.1 50.7l43.7 43.7-26.7 26.7-26.8 26.6-18-13.4c-9.9-7.4-18.8-13.4-19.7-13.4-3.3 0-6.7 2.3-7.8 5.3-.6 1.9-1 21.1-1 54.3V248h-58.5c-41.5 0-59.1.3-60.9 1.1-1.4.7-3 2.5-3.6 4.2-.6 1.8-1 14.7-1 33.3V317h-91V236.3l-2.3-2.1c-3.1-2.9-7.2-2.8-10.2.3l-2.5 2.4v44.9c0 43.9 0 45 2.1 47.6l2 2.6H234v86.6c0 63.9.3 87.1 1.2 88.7 2.5 4.7 1.4 4.6 57.1 4.7h52.8l2.4-2.5c1.4-1.3 2.5-3 2.5-3.7 0-2.2 16-121.1 16.3-121.4.2-.2 4 27.4 8.5 61.4 8 60.1 8.3 61.8 10.8 63.9l2.5 2.3h52.3c51.4 0 52.4 0 55-2.1l2.6-2V393.1l-2.7-2.1c-3.3-2.6-7.9-2.1-10.6 1.1-1.6 2-1.7 6-1.7 53.5V497h-85.8l-.6-3.8c-1.1-6.2-22.6-168.6-22.6-170 0-2.2-4.8-6.2-7.4-6.2-1.4 0-3.6 1-5 2.2-2.5 2.3-2.8 4-14.1 88.8-6.3 47.5-11.5 87-11.5 87.7 0 1-8.7 1.3-43 1.3h-43V300h233v69.1l2.5 2.4c3 3 6.4 3.2 9.9.4l2.6-2V252.1l-2.6-2c-2.6-2.1-3.5-2.1-62-2.1H374v-88l14.2 10.5c10.7 7.9 15 10.5 17.3 10.5 2.6 0 7.2-4.2 36.8-33.8 31.4-31.4 33.7-34 33.7-37.2 0-3.3-2.9-6.4-48.2-51.6-43.5-43.2-49-48.4-55.4-51.7C358.9-.2 363.8 0 250.5.1 168.5.2 147.4.4 143 1.5zm174 16.3c0 4.1-2.8 12.8-6.3 19.7-8.3 16.5-22.2 28.3-40.2 34.2-11.2 3.6-26.7 3.8-37.5.4-16.3-5-28.9-14.2-37.8-27.6-4.6-6.8-9.2-18.1-10.6-26.3l-.5-3.2H317v2.8zM71.3 238.4l6.7 5.8V331H29v-86.5l7.7-6.7c4.3-3.6 7.9-6.5 8-6.4.1.1.6 3 1.2 6.5C47.2 245.7 49 248 54 248c6.6 0 8.3-3.9 6.6-14.5l-.8-5 2.4 2.1c1.2 1.1 5.3 4.6 9.1 7.8zm217.5 35.8.3 10.8H250v-22l19.3.2 19.2.3.3 10.7zM429 274v11H304v-22h125v11zm54 0v11h-39v-22h39v11z"/><path d="M232.7 24.2c-4 3.1-3.6 11.5.8 13.2.9.3 8.8.6 17.4.6 14.5 0 16.1-.2 18.5-2.1 3.4-2.7 3.6-7.9.4-10.9-2-1.8-3.5-2-18.8-2-11.7 0-17.1.4-18.3 1.2z"/></svg>