<svg version="1.0" xmlns="http://www.w3.org/2000/svg" width="682.667" height="682.667" viewBox="0 0 512 512"><path d="M302 1.4c-13.3 3.6-21 10.4-29.9 26.4-6.1 10.9-6.4 11.2-8.5 9.9-19.8-12.9-35.5-22-38-22-4 0-8 4.6-7.1 8.2.4 1.4 1.1 3.1 1.7 3.8.5.6 9 6.2 18.9 12.4 9.8 6.1 18.2 11.5 18.4 12 .3.4-54.4 99.5-121.6 220.1C3.1 510.5 10.3 496.8 15.2 503.9c3.8 5.7 7.3 7.6 13.3 7.6 3.9 0 6.1-.6 8.2-2.1 3.2-2.4 277-394.7 277.9-398.3 1.5-5.4-4.8-10.7-9.9-8.4-1.5.7-52.8 73.6-138.6 196.7C91.2 407 29.6 495 29.3 495c-.3 0 .6-1.9 2-4.3 1.3-2.3 59.9-107.5 130.2-233.7C240.6 114.9 290.6 26 292.9 23.7c5.8-6.2 10.4-8.2 19.1-8.2 6 0 8.4.5 12.3 2.5 13.6 6.9 18.5 22.4 11.7 36.8-3.6 7.6-3.6 8.2-.9 11.6 2.3 2.9 7.3 3.6 10.1 1.3 5.4-4.3 9.2-16.9 8.6-28.2-1.4-26-27-44.9-51.8-38.1z"/><path d="M301.2 46.7c-1 1-6.7 9.5-12.6 18.9-11.3 18.3-12.4 21.6-8.6 25.4 2.1 2.1 6 2.6 8.9 1 1-.5 3.6-3.9 5.7-7.5 2.2-3.6 4.4-6.4 4.9-6.3 3.2.8 35.4 21.8 39.1 25.6 11.6 11.5 15.1 29 9 44.2-1.2 3-20.3 34.5-42.4 69.9-45.5 72.9-44.7 71.3-44.6 89.1.1 8.7.5 11.7 2.6 17.2 5.6 15 14.5 25.2 27.6 32.1 16.1 8.5 33.9 8.7 50.9.6 12.2-5.8 19-13.9 40.6-48.6 20-32.1 23.4-36.4 33.3-40.9 10.3-4.8 22.3-5.4 32.4-1.5 2.5 1 12.9 7 23.1 13.4 11.7 7.3 19.7 11.7 21.3 11.7 2.9 0 7.6-4 7.6-6.4 0-4.2-3-6.8-20.1-17.5-9.8-6.2-20.3-12.3-23.3-13.7-6-2.8-17.1-5.4-22.9-5.4-6.8 0-18.9 3.1-26 6.7-12.3 6.2-18 12.9-38.8 46.3-10.1 16.2-20.3 31.6-22.6 34.1-8.9 9.5-23.8 14.5-36.4 12.1-22.7-4.2-37.9-25.3-34.1-47.3.7-3.8 2.3-9.1 3.6-11.7 1.3-2.6 20.1-33.1 41.8-67.8 44.4-71 44.3-70.7 44.2-87.4 0-11.1-1.9-18.5-7.2-28-5.4-9.9-12.6-16.2-33-28.9l-18.3-11.3 1.7-2.7c.9-1.4 2.3-3.5 3.1-4.6 4.8-7.1-4.1-16.4-10.5-10.8z"/></svg>