<?xml version="1.0" standalone="no"?>
<!DOCTYPE svg PUBLIC "-//W3C//DTD SVG 20010904//EN"
 "http://www.w3.org/TR/2001/REC-SVG-20010904/DTD/svg10.dtd">
<svg version="1.0" xmlns="http://www.w3.org/2000/svg"
 width="512.000000pt" height="512.000000pt" viewBox="0 0 512.000000 512.000000"
 preserveAspectRatio="xMidYMid meet">

<g transform="translate(0.000000,512.000000) scale(0.100000,-0.100000)"
fill="#000000" stroke="none">
<path d="M3020 5106 c-133 -36 -210 -104 -299 -264 -61 -109 -64 -112 -85 -99
-198 129 -355 220 -380 220 -40 0 -80 -46 -71 -82 4 -14 11 -31 17 -38 5 -6
90 -62 189 -124 98 -61 182 -115 184 -120 3 -4 -544 -995 -1216 -2201 -1328
-2383 -1256 -2246 -1207 -2317 38 -57 73 -76 133 -76 39 0 61 6 82 21 32 24
2770 3947 2779 3983 15 54 -48 107 -99 84 -15 -7 -528 -736 -1386 -1967 -749
-1076 -1365 -1956 -1368 -1956 -3 0 6 19 20 43 13 23 599 1075 1302 2337 791
1421 1291 2310 1314 2333 58 62 104 82 191 82 60 0 84 -5 123 -25 136 -69 185
-224 117 -368 -36 -76 -36 -82 -9 -116 23 -29 73 -36 101 -13 54 43 92 169 86
282 -14 260 -270 449 -518 381z"/>
<path d="M3012 4653 c-10 -10 -67 -95 -126 -189 -113 -183 -124 -216 -86 -254
21 -21 60 -26 89 -10 10 5 36 39 57 75 22 36 44 64 49 63 32 -8 354 -218 391
-256 116 -115 151 -290 90 -442 -12 -30 -203 -345 -424 -699 -455 -729 -447
-713 -446 -891 1 -87 5 -117 26 -172 56 -150 145 -252 276 -321 161 -85 339
-87 509 -6 122 58 190 139 406 486 200 321 234 364 333 409 103 48 223 54 324
15 25 -10 129 -70 231 -134 117 -73 197 -117 213 -117 29 0 76 40 76 64 0 42
-30 68 -201 175 -98 62 -203 123 -233 137 -60 28 -171 54 -229 54 -68 0 -189
-31 -260 -67 -123 -62 -180 -129 -388 -463 -101 -162 -203 -316 -226 -341 -89
-95 -238 -145 -364 -121 -227 42 -379 253 -341 473 7 38 23 91 36 117 13 26
201 331 418 678 444 710 443 707 442 874 0 111 -19 185 -72 280 -54 99 -126
162 -330 289 l-183 113 17 27 c9 14 23 35 31 46 48 71 -41 164 -105 108z"/>
</g>
</svg>
