<?xml version="1.0" standalone="no"?>
<!DOCTYPE svg PUBLIC "-//W3C//DTD SVG 20010904//EN"
 "http://www.w3.org/TR/2001/REC-SVG-20010904/DTD/svg10.dtd">
<svg version="1.0" xmlns="http://www.w3.org/2000/svg"
 width="512.000000pt" height="512.000000pt" viewBox="0 0 512.000000 512.000000"
 preserveAspectRatio="xMidYMid meet">

<g transform="translate(0.000000,512.000000) scale(0.100000,-0.100000)"
fill="#000000" stroke="none">
<path d="M4107 4878 c-23 -18 -37 -61 -37 -114 l0 -44 -70 0 c-74 0 -123 -17
-134 -45 -3 -9 -6 -140 -6 -291 l0 -274 -1011 0 -1011 0 -29 -29 c-34 -35 -36
-59 -9 -94 l21 -26 1392 -3 1392 -3 56 -22 c159 -60 271 -189 299 -344 7 -36
9 -559 8 -1520 l-3 -1464 -24 -47 c-31 -63 -86 -119 -147 -149 l-49 -24 -1767
-5 c-1660 -5 -1768 -6 -1785 -22 -26 -26 -22 -86 6 -109 22 -18 78 -19 1775
-19 1430 0 1760 3 1801 14 165 44 287 166 330 333 22 85 22 2952 0 3057 -44
209 -212 388 -424 450 -30 9 -96 19 -147 22 l-94 7 0 277 c0 339 6 323 -124
329 l-86 3 0 43 c0 54 -17 103 -40 115 -26 14 -63 12 -83 -2z m183 -538 l0
-230 -140 0 -140 0 0 223 c0 123 3 227 7 230 3 4 66 7 140 7 l133 0 0 -230z"/>
<path d="M1085 4358 c-40 -21 -45 -39 -45 -144 l0 -103 -37 -6 c-112 -16 -155
-28 -228 -64 -99 -50 -170 -111 -229 -199 -86 -130 -89 -148 -155 -839 -64
-671 -64 -680 -16 -780 55 -112 164 -186 300 -205 l75 -11 0 -84 c0 -162 62
-233 205 -233 l65 0 0 -190 0 -190 -485 0 -486 0 -24 -25 -25 -24 0 -313 c0
-339 5 -378 56 -480 34 -67 116 -149 185 -183 99 -51 131 -55 442 -55 l288 0
24 25 c30 29 32 64 6 96 l-19 24 -304 5 c-291 5 -305 6 -350 28 -60 30 -120
90 -150 150 -22 45 -23 58 -26 325 l-3 277 204 0 205 0 4 -111 c3 -107 4 -112
31 -135 l28 -24 494 0 494 0 28 24 c27 23 28 28 31 135 l4 111 538 0 c528 0
538 0 564 21 34 27 36 77 3 107 l-23 22 -792 0 -792 0 0 189 0 189 79 3 c71 4
83 7 118 35 60 49 74 81 80 188 l6 94 66 12 c130 22 241 101 294 210 14 30 50
142 79 249 41 156 58 201 80 227 58 66 45 65 735 62 610 -3 622 -3 649 -24 15
-11 37 -33 48 -48 21 -27 21 -37 21 -656 0 -619 0 -629 -21 -656 -47 -64 -62
-69 -227 -72 -84 -1 -162 -5 -174 -7 -13 -3 -30 -19 -38 -35 -14 -26 -14 -34
-1 -65 9 -22 24 -37 40 -41 13 -3 98 -4 188 -2 148 3 167 5 212 27 63 31 115
83 146 146 l25 50 0 655 0 655 -25 50 c-33 69 -99 129 -166 155 -55 20 -68 21
-713 18 l-656 -3 -45 -24 c-128 -68 -154 -110 -220 -356 -61 -230 -72 -255
-125 -304 -72 -66 -72 -66 -545 -66 -416 0 -426 0 -465 22 -84 45 -125 114
-125 209 0 100 109 1197 124 1246 40 135 150 245 291 291 53 18 98 21 377 26
302 6 318 7 332 26 16 21 20 53 10 80 -15 38 -56 45 -249 45 l-185 0 0 99 c0
116 -3 127 -41 146 -33 18 -38 18 -64 3z m203 -2430 l-3 -83 -179 -3 c-123 -2
-183 1 -192 9 -10 8 -14 35 -14 85 l0 74 195 0 196 0 -3 -82z m222 -828 l0
-60 -395 0 -395 0 0 60 0 60 395 0 395 0 0 -60z"/>
<path d="M2715 3505 c-32 -31 -33 -74 -2 -103 22 -20 33 -22 166 -22 139 0
142 1 168 26 20 20 24 31 19 57 -11 60 -32 67 -188 67 -134 0 -140 -1 -163
-25z"/>
<path d="M3295 3505 c-32 -31 -33 -74 -2 -103 l23 -22 620 0 621 0 21 23 c29
31 28 72 -3 102 l-24 25 -616 0 -616 0 -24 -25z"/>
<path d="M4221 2929 c-70 -14 -132 -49 -192 -109 -120 -119 -140 -308 -48
-452 156 -243 517 -222 645 38 26 53 29 69 29 159 0 87 -3 107 -27 157 -50
107 -153 185 -273 207 -66 12 -72 12 -134 0z m130 -153 c20 -4 54 -22 79 -43
124 -106 101 -290 -44 -365 -31 -16 -53 -19 -106 -16 -83 4 -136 36 -176 104
-55 93 -28 224 58 285 34 25 113 50 138 44 8 -2 31 -6 51 -9z"/>
</g>
</svg>
