<svg version="1.0" xmlns="http://www.w3.org/2000/svg" width="682.667" height="682.667" viewBox="0 0 512 512"><path d="M410.7 24.2c-2.3 1.8-3.7 6.1-3.7 11.4V40h-7c-7.4 0-12.3 1.7-13.4 4.5-.3.9-.6 14-.6 29.1V101H183.8l-2.9 2.9c-3.4 3.5-3.6 5.9-.9 9.4l2.1 2.6 139.2.3 139.2.3 5.6 2.2c15.9 6 27.1 18.9 29.9 34.4.7 3.6.9 55.9.8 152l-.3 146.4-2.4 4.7c-3.1 6.3-8.6 11.9-14.7 14.9l-4.9 2.4-176.7.5c-166 .5-176.8.6-178.5 2.2-2.6 2.6-2.2 8.6.6 10.9 2.2 1.8 7.8 1.9 177.5 1.9 143 0 176-.3 180.1-1.4 16.5-4.4 28.7-16.6 33-33.3 2.2-8.5 2.2-295.2 0-305.7-4.4-20.9-21.2-38.8-42.4-45-3-.9-9.6-1.9-14.7-2.2l-9.4-.7V73c0-33.9.6-32.3-12.4-32.9l-8.6-.3v-4.3c0-5.4-1.7-10.3-4-11.5-2.6-1.4-6.3-1.2-8.3.2zM429 78v23h-28V78.7c0-12.3.3-22.7.7-23 .3-.4 6.6-.7 14-.7H429v23z"/><path d="M108.5 76.2c-4 2.1-4.5 3.9-4.5 14.4v10.3l-3.7.6c-11.2 1.6-15.5 2.8-22.8 6.4-9.9 5-17 11.1-22.9 19.9-8.6 13-8.9 14.8-15.5 83.9-6.4 67.1-6.4 68-1.6 78 5.5 11.2 16.4 18.6 30 20.5l7.5 1.1v8.4c0 16.2 6.2 23.3 20.5 23.3h6.5v38H4.9l-2.4 2.5-2.5 2.4v31.3c0 33.9.5 37.8 5.6 48 3.4 6.7 11.6 14.9 18.5 18.3 9.9 5.1 13.1 5.5 44.2 5.5h28.8l2.4-2.5c3-2.9 3.2-6.4.6-9.6l-1.9-2.4-30.4-.5c-29.1-.5-30.5-.6-35-2.8-6-3-12-9-15-15-2.2-4.5-2.3-5.8-2.6-32.5l-.3-27.7h40.9l.4 11.1c.3 10.7.4 11.2 3.1 13.5l2.8 2.4h98.8l2.8-2.4c2.7-2.3 2.8-2.8 3.1-13.5l.4-11.1H221c52.8 0 53.8 0 56.4-2.1 3.4-2.7 3.6-7.7.3-10.7l-2.3-2.2H117v-37.8l7.9-.3c7.1-.4 8.3-.7 11.8-3.5 6-4.9 7.4-8.1 8-18.8l.6-9.4 6.6-1.2c13-2.2 24.1-10.1 29.4-21 1.4-3 5-14.2 7.9-24.9 4.1-15.6 5.8-20.1 8-22.7 5.8-6.6 4.5-6.5 73.5-6.2 61 .3 62.2.3 64.9 2.4 1.5 1.1 3.7 3.3 4.8 4.8 2.1 2.7 2.1 3.7 2.1 65.6 0 61.9 0 62.9-2.1 65.6-4.7 6.4-6.2 6.9-22.7 7.2-8.4.1-16.2.5-17.4.7-1.3.3-3 1.9-3.8 3.5-1.4 2.6-1.4 3.4-.1 6.5.9 2.2 2.4 3.7 4 4.1 1.3.3 9.8.4 18.8.2 14.8-.3 16.7-.5 21.2-2.7 6.3-3.1 11.5-8.3 14.6-14.6l2.5-5v-131l-2.5-5c-3.3-6.9-9.9-12.9-16.6-15.5-5.5-2-6.8-2.1-71.3-1.8l-65.6.3-4.5 2.4c-12.8 6.8-15.4 11-22 35.6-6.1 23-7.2 25.5-12.5 30.4-7.2 6.6-7.2 6.6-54.5 6.6-41.6 0-42.6 0-46.5-2.2-8.4-4.5-12.5-11.4-12.5-20.9 0-10 10.9-119.7 12.4-124.6 4-13.5 15-24.5 29.1-29.1 5.3-1.8 9.8-2.1 37.7-2.6 30.2-.6 31.8-.7 33.2-2.6 1.6-2.1 2-5.3 1-8-1.5-3.8-5.6-4.5-24.9-4.5H119v-9.9c0-11.6-.3-12.7-4.1-14.6-3.3-1.8-3.8-1.8-6.4-.3zm20.3 243-.3 8.3-17.9.3c-12.3.2-18.3-.1-19.2-.9-1-.8-1.4-3.5-1.4-8.5V311h39.1l-.3 8.2zM151 402v6H72v-12h79v6zM271.5 161.5c-3.2 3.1-3.3 7.4-.2 10.3 2.2 2 3.3 2.2 16.6 2.2 13.9 0 14.2-.1 16.8-2.6 2-2 2.4-3.1 1.9-5.7-1.1-6-3.2-6.7-18.8-6.7-13.4 0-14 .1-16.3 2.5zM329.5 161.5c-3.2 3.1-3.3 7.4-.2 10.3l2.3 2.2h124.1l2.1-2.3c2.9-3.1 2.8-7.2-.3-10.2l-2.4-2.5H331.9l-2.4 2.5zM422.1 219.1c-7 1.4-13.2 4.9-19.2 10.9-12 11.9-14 30.8-4.8 45.2 15.6 24.3 51.7 22.2 64.5-3.8 2.6-5.3 2.9-6.9 2.9-15.9 0-8.7-.3-10.7-2.7-15.7-5-10.7-15.3-18.5-27.3-20.7-6.6-1.2-7.2-1.2-13.4 0zm13 15.3c2 .4 5.4 2.2 7.9 4.3 12.4 10.6 10.1 29-4.4 36.5-3.1 1.6-5.3 1.9-10.6 1.6-8.3-.4-13.6-3.6-17.6-10.4-5.5-9.3-2.8-22.4 5.8-28.5 3.4-2.5 11.3-5 13.8-4.4.8.2 3.1.6 5.1.9z"/></svg>
