<?xml version="1.0" standalone="no"?>
<!DOCTYPE svg PUBLIC "-//W3C//DTD SVG 20010904//EN"
 "http://www.w3.org/TR/2001/REC-SVG-20010904/DTD/svg10.dtd">
<svg version="1.0" xmlns="http://www.w3.org/2000/svg"
 width="512.000000pt" height="512.000000pt" viewBox="0 0 512.000000 512.000000"
 preserveAspectRatio="xMidYMid meet">

<g transform="translate(0.000000,512.000000) scale(0.100000,-0.100000)"
fill="#000000" stroke="none">
<path d="M580 5090 c-219 -57 -408 -212 -505 -415 -55 -115 -66 -172 -72 -367
l-5 -176 25 -26 c33 -33 71 -33 102 -1 24 23 25 29 25 162 0 82 6 166 15 207
49 230 233 418 462 472 93 22 255 14 341 -16 172 -61 315 -204 380 -381 l27
-74 3 -1619 2 -1618 -62 65 c-156 161 -382 249 -598 234 -116 -9 -188 -29
-299 -83 -76 -37 -110 -62 -182 -133 l-89 -86 0 1291 c0 1291 0 1291 -21 1318
-28 36 -80 36 -108 -1 l-21 -26 3 -1591 c2 -1497 4 -1595 21 -1651 81 -272
292 -477 560 -545 78 -20 114 -20 2196 -20 l2117 0 62 31 c41 21 73 46 96 77
70 91 65 -60 63 2102 l-3 1955 -23 42 c-35 66 -79 110 -140 140 l-57 28 -1682
3 -1683 2 0 29 c0 45 -38 181 -69 248 -77 164 -198 287 -356 363 -55 27 -132
56 -172 64 -100 22 -258 20 -353 -4z m1202 -867 c8 -10 76 -115 151 -234 149
-234 163 -271 134 -340 -8 -19 -67 -118 -131 -219 -120 -189 -146 -249 -146
-331 0 -78 25 -134 152 -332 66 -103 124 -203 130 -223 18 -65 2 -105 -119
-296 -151 -237 -158 -253 -158 -353 0 -47 6 -94 14 -115 15 -36 192 -322 219
-352 21 -25 84 -24 107 2 34 37 23 69 -78 226 -105 163 -117 189 -117 239 0
51 10 70 139 273 132 207 157 268 148 359 -8 73 -36 129 -165 332 -62 96 -114
189 -118 208 -12 66 3 102 126 295 67 104 129 206 138 226 10 24 16 66 16 117
0 100 -9 122 -148 339 -59 92 -109 173 -112 181 -5 13 33 15 287 15 l294 0
143 -224 c78 -123 147 -238 153 -256 24 -67 7 -111 -122 -312 -137 -215 -147
-236 -155 -316 -9 -86 14 -149 107 -298 165 -260 171 -272 176 -317 7 -58 -10
-95 -137 -292 -135 -211 -144 -230 -144 -330 0 -100 9 -121 144 -330 116 -181
139 -226 140 -273 0 -49 -16 -80 -144 -282 -131 -206 -152 -259 -142 -353 8
-80 25 -114 154 -315 62 -96 112 -176 112 -178 0 -2 -133 -3 -296 -2 l-296 3
-125 195 c-157 244 -173 274 -173 322 0 54 14 82 124 253 53 83 99 161 103
174 14 54 -50 107 -100 84 -31 -14 -240 -342 -263 -412 -21 -64 -15 -158 13
-223 11 -24 67 -119 125 -209 57 -90 107 -170 112 -176 6 -10 -78 -13 -407
-13 l-414 0 76 78 c81 83 128 153 168 252 55 137 53 52 53 1966 0 974 3 1774
7 1777 3 4 57 7 118 7 94 0 114 -3 127 -17z m1623 -185 c155 -243 175 -280
175 -329 0 -55 -8 -70 -139 -276 -133 -209 -159 -273 -146 -367 9 -72 28 -110
143 -289 138 -214 145 -229 140 -292 -4 -46 -19 -74 -128 -246 -68 -107 -131
-212 -139 -234 -20 -55 -18 -180 3 -230 9 -22 72 -125 139 -230 l122 -190 0
-65 0 -65 -122 -191 c-68 -105 -130 -209 -140 -230 -22 -50 -22 -174 0 -231 9
-24 68 -124 132 -223 63 -99 115 -183 115 -185 0 -3 -123 -5 -274 -5 l-274 0
-138 217 c-76 119 -145 236 -153 259 -24 66 -6 110 126 316 127 199 152 254
152 338 0 84 -24 139 -152 339 -129 201 -148 246 -129 309 7 21 66 124 132
228 125 196 150 253 150 338 -1 80 -27 138 -158 341 -129 201 -145 241 -123
307 6 19 65 119 131 223 135 211 156 263 147 359 -8 83 -21 110 -148 308 -61
95 -114 179 -116 186 -4 9 54 12 269 12 l274 0 129 -202z m791 -30 c202 -317
201 -285 26 -562 -45 -71 -82 -140 -82 -153 0 -30 42 -73 70 -73 40 0 58 20
159 179 122 191 135 225 129 329 -6 92 -9 100 -158 332 l-111 175 283 3 c156
2 301 0 323 -3 56 -8 98 -36 118 -78 16 -32 17 -183 17 -1962 0 -2093 4 -1950
-55 -2005 -26 -25 -30 -25 -213 -28 l-187 -3 -142 223 c-147 231 -168 278
-153 343 4 19 62 120 128 224 132 208 152 252 152 341 0 89 -20 133 -152 341
-66 104 -124 204 -128 223 -15 66 3 108 130 307 68 106 130 214 137 239 21 65
13 183 -17 240 -32 62 -220 353 -234 362 -43 28 -116 -10 -116 -60 0 -15 47
-99 112 -200 104 -161 112 -179 116 -232 5 -68 7 -64 -129 -275 -135 -211
-151 -247 -151 -338 0 -40 7 -90 15 -112 8 -23 67 -123 131 -222 128 -200 136
-217 136 -273 0 -56 -8 -71 -136 -272 -64 -100 -123 -200 -131 -222 -8 -23
-15 -73 -15 -113 0 -91 16 -127 152 -338 56 -88 105 -165 107 -172 4 -10 -56
-13 -289 -13 l-294 0 -139 217 c-77 120 -145 234 -152 253 -27 77 -19 97 136
340 114 179 141 239 141 320 0 81 -27 141 -150 335 -110 173 -141 233 -140
275 1 36 33 96 135 255 130 203 155 258 154 340 0 88 -23 142 -143 330 -60 94
-118 190 -129 214 -32 73 -21 106 107 308 145 228 158 254 164 329 8 105 -9
146 -144 360 -68 107 -124 197 -124 200 0 2 132 4 294 4 l293 0 149 -232z
m-3301 -2633 c184 -39 348 -171 429 -346 45 -98 60 -178 54 -292 -14 -248
-177 -465 -411 -547 -86 -30 -247 -38 -341 -16 -320 75 -530 405 -462 725 25
119 78 213 171 306 155 155 349 214 560 170z"/>
<path d="M648 1151 c-77 -25 -118 -52 -177 -116 -71 -78 -95 -146 -96 -265 0
-86 3 -101 32 -162 39 -82 101 -146 185 -190 60 -32 68 -33 173 -33 99 0 116
3 168 27 73 35 155 116 193 193 26 55 29 69 29 165 0 97 -2 110 -31 170 -39
82 -106 150 -189 191 -83 41 -200 49 -287 20z m194 -143 c56 -16 133 -88 153
-143 26 -67 17 -160 -21 -221 -60 -97 -191 -141 -299 -99 -55 20 -127 97 -143
153 -58 192 118 368 310 310z"/>
</g>
</svg>
