<svg version="1.0" xmlns="http://www.w3.org/2000/svg" width="682.667" height="682.667" viewBox="0 0 512 512"><path d="M58 3C36.1 8.7 17.2 24.2 7.5 44.5 2 56 .9 61.7.3 81.2l-.5 17.6 2.5 2.6c3.3 3.3 7.1 3.3 10.2.1 2.4-2.3 2.5-2.9 2.5-16.2 0-8.2.6-16.6 1.5-20.7 4.9-23 23.3-41.8 46.2-47.2C72 15.2 88.2 16 96.8 19c17.2 6.1 31.5 20.4 38 38.1l2.7 7.4.3 161.9.2 161.8-6.2-6.5c-15.6-16.1-38.2-24.9-59.8-23.4-11.6.9-18.8 2.9-29.9 8.3-7.6 3.7-11 6.2-18.2 13.3l-8.9 8.6V259.4c0-129.1 0-129.1-2.1-131.8-2.8-3.6-8-3.6-10.8.1L0 130.3l.3 159.1c.2 149.7.4 159.5 2.1 165.1 8.1 27.2 29.2 47.7 56 54.5 7.8 2 11.4 2 219.6 2h211.7l6.2-3.1c4.1-2.1 7.3-4.6 9.6-7.7 7-9.1 6.5 6 6.3-210.2l-.3-195.5-2.3-4.2c-3.5-6.6-7.9-11-14-14l-5.7-2.8-168.2-.3L153 73v-2.9c0-4.5-3.8-18.1-6.9-24.8-7.7-16.4-19.8-28.7-35.6-36.3-5.5-2.7-13.2-5.6-17.2-6.4C83.3.4 67.5.6 58 3zm120.2 86.7c.8 1 7.6 11.5 15.1 23.4 14.9 23.4 16.3 27.1 13.4 34-.8 1.9-6.7 11.8-13.1 21.9-12 18.9-14.6 24.9-14.6 33.1 0 7.8 2.5 13.4 15.2 33.2 6.6 10.3 12.4 20.3 13 22.3 1.8 6.5.2 10.5-11.9 29.6-15.1 23.7-15.8 25.3-15.8 35.3 0 4.7.6 9.4 1.4 11.5 1.5 3.6 19.2 32.2 21.9 35.2 2.1 2.5 8.4 2.4 10.7-.2 3.4-3.7 2.3-6.9-7.8-22.6-10.5-16.3-11.7-18.9-11.7-23.9 0-5.1 1-7 13.9-27.3 13.2-20.7 15.7-26.8 14.8-35.9-.8-7.3-3.6-12.9-16.5-33.2-6.2-9.6-11.4-18.9-11.8-20.8-1.2-6.6.3-10.2 12.6-29.5 6.7-10.4 12.9-20.6 13.8-22.6 1-2.4 1.6-6.6 1.6-11.7 0-10-.9-12.2-14.8-33.9-5.9-9.2-10.9-17.3-11.2-18.1-.5-1.3 3.3-1.5 28.7-1.5h29.4l14.3 22.4c7.8 12.3 14.7 23.8 15.3 25.6 2.4 6.7.7 11.1-12.2 31.2-13.7 21.5-14.7 23.6-15.5 31.6-.9 8.6 1.4 14.9 10.7 29.8 16.5 26 17.1 27.2 17.6 31.7.7 5.8-1 9.5-13.7 29.2-13.5 21.1-14.4 23-14.4 33s.9 12.1 14.4 33c11.6 18.1 13.9 22.6 14 27.3 0 4.9-1.6 8-14.4 28.2-13.1 20.6-15.2 25.9-14.2 35.3.8 8 2.5 11.4 15.4 31.5 6.2 9.6 11.2 17.6 11.2 17.8 0 .2-13.3.3-29.6.2l-29.6-.3-12.5-19.5c-15.7-24.4-17.3-27.4-17.3-32.2 0-5.4 1.4-8.2 12.4-25.3 5.3-8.3 9.9-16.1 10.3-17.4 1.4-5.4-5-10.7-10-8.4-3.1 1.4-24 34.2-26.3 41.2-2.1 6.4-1.5 15.8 1.3 22.3 1.1 2.4 6.7 11.9 12.5 20.9 5.7 9 10.7 17 11.2 17.6.6 1-7.8 1.3-40.7 1.3h-41.4l7.6-7.8c8.1-8.3 12.8-15.3 16.8-25.2 5.5-13.7 5.3-5.2 5.3-196.6 0-97.4.3-177.4.7-177.7.3-.4 5.7-.7 11.8-.7 9.4 0 11.4.3 12.7 1.7zm162.3 18.5c15.5 24.3 17.5 28 17.5 32.9 0 5.5-.8 7-13.9 27.6-13.3 20.9-15.9 27.3-14.6 36.7.9 7.2 2.8 11 14.3 28.9 13.8 21.4 14.5 22.9 14 29.2-.4 4.6-1.9 7.4-12.8 24.6-6.8 10.7-13.1 21.2-13.9 23.4-2 5.5-1.8 18 .3 23 .9 2.2 7.2 12.5 13.9 23l12.2 19v13l-12.2 19.1c-6.8 10.5-13 20.9-14 23-2.2 5-2.2 17.4 0 23.1.9 2.4 6.8 12.4 13.2 22.3 6.3 9.9 11.5 18.3 11.5 18.5 0 .3-12.3.5-27.4.5h-27.4l-13.8-21.7c-7.6-11.9-14.5-23.6-15.3-25.9-2.4-6.6-.6-11 12.6-31.6 12.7-19.9 15.2-25.4 15.2-33.8 0-8.4-2.4-13.9-15.2-33.9-12.9-20.1-14.8-24.6-12.9-30.9.7-2.1 6.6-12.4 13.2-22.8 12.5-19.6 15-25.3 15-33.8-.1-8-2.7-13.8-15.8-34.1-12.9-20.1-14.5-24.1-12.3-30.7.6-1.9 6.5-11.9 13.1-22.3 13.5-21.1 15.6-26.3 14.7-35.9-.8-8.3-2.1-11-14.8-30.8-6.1-9.5-11.4-17.9-11.6-18.6-.4-.9 5.4-1.2 26.9-1.2h27.4l12.9 20.2zm79.1 3c20.2 31.7 20.1 28.5 2.6 56.2-4.5 7.1-8.2 14-8.2 15.3 0 3 4.2 7.3 7 7.3 4 0 5.8-2 15.9-17.9 12.2-19.1 13.5-22.5 12.9-32.9-.6-9.2-.9-10-15.8-33.2l-11.1-17.5 28.3-.3c15.6-.2 30.1 0 32.3.3 5.6.8 9.8 3.6 11.8 7.8 1.6 3.2 1.7 18.3 1.7 196.2 0 209.3.4 195-5.5 200.5-2.6 2.5-3 2.5-21.3 2.8l-18.7.3-14.2-22.3c-14.7-23.1-16.8-27.8-15.3-34.3.4-1.9 6.2-12 12.8-22.4C448 396.3 450 391.9 450 383c0-8.9-2-13.3-15.2-34.1-6.6-10.4-12.4-20.4-12.8-22.3-1.5-6.6.3-10.8 13-30.7 6.8-10.6 13-21.4 13.7-23.9 2.1-6.5 1.3-18.3-1.7-24-3.2-6.2-22-35.3-23.4-36.2-4.3-2.8-11.6 1-11.6 6 0 1.5 4.7 9.9 11.2 20 10.4 16.1 11.2 17.9 11.6 23.2.5 6.8.7 6.4-12.9 27.5-13.5 21.1-15.1 24.7-15.1 33.8 0 4 .7 9 1.5 11.2.8 2.3 6.7 12.3 13.1 22.2 12.8 20 13.6 21.7 13.6 27.3 0 5.6-.8 7.1-13.6 27.2-6.4 10-12.3 20-13.1 22.2-.8 2.3-1.5 7.3-1.5 11.3 0 9.1 1.6 12.7 15.2 33.8 5.6 8.8 10.5 16.5 10.7 17.2.4 1-5.6 1.3-28.9 1.3h-29.4l-13.9-21.7c-7.7-12-14.5-23.4-15.2-25.3-2.7-7.7-1.9-9.7 13.6-34 11.4-17.9 14.1-23.9 14.1-32 0-8.1-2.7-14.1-15-33.5-11-17.3-14.1-23.3-14-27.5.1-3.6 3.3-9.6 13.5-25.5 13-20.3 15.5-25.8 15.4-34 0-8.8-2.3-14.2-14.3-33-6-9.4-11.8-19-12.9-21.4-3.2-7.3-2.1-10.6 10.7-30.8 14.5-22.8 15.8-25.4 16.4-32.9.8-10.5-.9-14.6-14.4-36-6.8-10.7-12.4-19.7-12.4-20 0-.2 13.2-.4 29.4-.4h29.3l14.9 23.2zM89.5 374.5c18.4 3.9 34.8 17.1 42.9 34.6 4.5 9.8 6 17.8 5.4 29.2-1.4 24.8-17.7 46.5-41.1 54.7-8.6 3-24.7 3.8-34.1 1.6-32-7.5-53-40.5-46.2-72.5 2.5-11.9 7.8-21.3 17.1-30.6 15.5-15.5 34.9-21.4 56-17z"/><path d="M64.8 396.9c-7.7 2.5-11.8 5.2-17.7 11.6-7.1 7.8-9.5 14.6-9.6 26.5 0 8.6.3 10.1 3.2 16.2 3.9 8.2 10.1 14.6 18.5 19 6 3.2 6.8 3.3 17.3 3.3 9.9 0 11.6-.3 16.8-2.7 7.3-3.5 15.5-11.6 19.3-19.3 2.6-5.5 2.9-6.9 2.9-16.5 0-9.7-.2-11-3.1-17-3.9-8.2-10.6-15-18.9-19.1-8.3-4.1-20-4.9-28.7-2zm19.4 14.3c5.6 1.6 13.3 8.8 15.3 14.3 2.6 6.7 1.7 16-2.1 22.1-6 9.7-19.1 14.1-29.9 9.9-5.5-2-12.7-9.7-14.3-15.3-5.8-19.2 11.8-36.8 31-31z"/></svg>